# xmcd
#
# Track frame offsets:
# 150
# 15075
# 28862
# 43025
# 59000
# 78700
# 93570
# 115475
# 131775
# 148437
#
# Disc length: 2152 seconds
#
#
# Revision: 0
# Processed by: cddbd v1.5.1PL2 Copyright (c) Steve Scherf et al.
# Submitted via: FreeRIP 2.944 
#
DISCID=9408660a
DTITLE=Joan Armstrong - Me Myself I
DYEAR=1980
DGENRE=Soul
TTITLE0=Me Myself I
TTITLE1=Ma-Me-O-Beach
TTITLE2=Friends
TTITLE3=Is it Tomorrow Yet
TTITLE4=Turn Out the Light
TTITLE5=When you Kisses Me
TTITLE6=All the Way From America
TTITLE7=Feeling in My Heart
TTITLE8=Simon
TTITLE9=I Need You
EXTD=
EXTT0=
EXTT1=
EXTT2=
EXTT3=
EXTT4=
EXTT5=
EXTT6=
EXTT7=
EXTT8=
EXTT9=
PLAYORDER=
